<?xml version="1.0" encoding="utf-8"?>
<!-- Generator: Adobe Illustrator 21.0.0, SVG Export Plug-In . SVG Version: 6.00 Build 0)  -->
<svg version="1.1" id="Capa_1" xmlns="http://www.w3.org/2000/svg" xmlns:xlink="http://www.w3.org/1999/xlink" x="0px" y="0px"
	 viewBox="0 0 512 512" style="enable-background:new 0 0 512 512;" xml:space="preserve">
<g>
	<g>
		<path d="M397.6,462.6l-7.2-114.8l41-41c3-3,3-7.8,0-10.7l-30.8-30.8c-3-3-7.8-3-10.7,0l-4.4,4.4l-4.4-70.3l31.1-31.1
			c16.7-16.7,27.9-35.8,33.4-56.7c3.3-12.8-0.3-26.1-9.6-35.4c0,0,0,0,0,0c-9.4-9.4-22.6-13-35.5-9.6c-20.9,5.5-40,16.7-56.7,33.4
			l-31.1,31.1l-70.4-4.4l4.4-4.4c3-3,3-7.8,0-10.7l-30.8-30.8c-3-3-7.8-3-10.7,0l-41,41l-114.8-7.2c-16.5-1-26.7,10.2-29.4,21.8
			c-2,8.7-0.3,19,7.1,26.4c2.5,2.5,5.6,4.6,9.5,6.3l36.8,15.6c3.8,1.6,8.3-0.2,9.9-4c1.6-3.9-0.2-8.3-4-9.9l-36.8-15.6
			c-7.6-3.2-8.9-10.2-7.7-15.2c1.2-5,5.5-10.7,13.7-10.2l249.9,15.7l-83.1,83.1l-105.9-45c-3.8-1.6-8.3,0.2-9.9,4
			c-1.6,3.8,0.2,8.3,4,9.9l100.3,42.6l-59.5,59.5c-7.2,7.2-13.6,15.1-19.1,23.6H52.9c-7.4,0-13.6,4.6-15.9,11.7
			c-1.9,6.1-0.3,12.3,4,16.7c0.7,0.7,1.5,1.4,2.4,2l55.5,38.4c-0.3,3.2,0.1,6.4,1.4,9.4l-24,24c-2.9,2.9-3.2,7.7-0.4,10.8
			c2.9,3.1,7.9,3.2,10.9,0.2l24.2-24.2c2.9,1.2,6.1,1.6,9.3,1.3l38.4,55.6c0.6,0.9,1.3,1.7,2,2.4c4.3,4.3,10.6,5.9,16.7,4
			c7.1-2.2,11.7-8.4,11.7-15.9v-72.2c8.5-5.5,16.4-11.9,23.6-19.1l27.7-27.7c3-3,3-7.8,0-10.7c-3-3-7.8-3-10.7,0L202,357.1
			c-16,16-35.9,27.6-57.7,33.8l-17.2,4.9l31-31c2.9-2.9,3.2-7.7,0.4-10.8c-2.9-3.1-7.9-3.2-10.9-0.2l-31.3,31.3l4.9-17.4
			c6.1-21.7,17.8-41.6,33.8-57.7l199.5-199.5c14.8-14.8,31.5-24.7,49.8-29.5c7.6-2,15.4,0.2,20.9,5.7c0,0,0,0,0,0
			c5.5,5.5,7.7,13.4,5.7,20.9c-4.8,18.3-14.7,35.1-29.4,49.8L254.7,304.3c-3,3-3,7.8,0,10.7c3,3,7.8,3,10.7,0l6.8-6.8l71,167.2
			c1.6,3.8,3.8,7,6.3,9.5c7.4,7.4,17.7,9.1,26.4,7.1C387.4,489.2,398.6,479.1,397.6,462.6z M222.1,125.2l-37.7-2.4l26.2-26.2l20,20
			L222.1,125.2z M148.3,405.4c8.8-2.5,17.4-5.8,25.5-9.8l0,63.5c0,0.3,0,1.1-1.1,1.4c-1.1,0.3-1.5-0.3-1.7-0.5l-35.3-51L148.3,405.4
			z M106.6,363.6l-3.5,12.4l-51-35.2c-0.2-0.2-0.9-0.6-0.6-1.7c0.3-1.1,1.1-1.1,1.4-1.1l63.5,0C112.4,346.3,109,354.8,106.6,363.6z
			 M395.2,281.4l20,20l-26.2,26.2l-2.4-37.7L395.2,281.4z M372.3,477.2c-5,1.2-12-0.1-15.2-7.7l-73.4-172.8l83.1-83.1l15.7,249.9
			C383,471.8,377.3,476.1,372.3,477.2z"/>
	</g>
</g>
<g>
	<g>
		<path d="M412.8,131c0-17.5-14.3-31.8-31.8-31.8c-4.2,0-7.6,3.4-7.6,7.6c0,4.2,3.4,7.6,7.6,7.6c9.2,0,16.6,7.5,16.6,16.6
			c0,2.1,0.8,4,2.2,5.4c1.4,1.4,3.3,2.2,5.4,2.2C409.4,138.6,412.8,135.2,412.8,131z"/>
	</g>
</g>
</svg>
