<svg class="lds-spinner" xmlns="http://www.w3.org/2000/svg" viewBox="0 0 100 100" preserveAspectRatio="xMidYMid" style="width:200px;webkit-logical-width:200px;webkit-logical-height:200px;user-select:none;transform-origin:50% 50%;r:0;position:relative;overflow-y:hidden;overflow-x:hidden;inline-size:200px;height:200px;d:none;block-size:200px;background:rgba(0,0,0,0) 0% 0%/auto padding-box border-box" overflow="hidden" display="block"><g style="user-select:none"><rect x="47" y="24" rx="9.4" ry="4.8" width="6" height="12" fill="#cacaca" style="y:24px;x:47px;width:6px;webkit-logical-width:6px;webkit-logical-height:12px;user-select:none;ry:4.8px;rx:9.4px;inline-size:6px;height:12px;block-size:12px" opacity=".083"/></g><g style="user-select:none"><rect x="47" y="24" rx="9.4" ry="4.8" width="6" height="12" fill="#cacaca" style="y:24px;x:47px;width:6px;webkit-logical-width:6px;webkit-logical-height:12px;user-select:none;ry:4.8px;rx:9.4px;inline-size:6px;height:12px;block-size:12px" opacity=".167" transform="rotate(30 50 50)"/></g><g style="user-select:none"><rect x="47" y="24" rx="9.4" ry="4.8" width="6" height="12" fill="#cacaca" style="y:24px;x:47px;width:6px;webkit-logical-width:6px;webkit-logical-height:12px;user-select:none;ry:4.8px;rx:9.4px;inline-size:6px;height:12px;block-size:12px" opacity=".25" transform="rotate(60 50 50)"/></g><g style="user-select:none"><rect x="47" y="24" rx="9.4" ry="4.8" width="6" height="12" fill="#cacaca" style="y:24px;x:47px;width:6px;webkit-logical-width:6px;webkit-logical-height:12px;user-select:none;ry:4.8px;rx:9.4px;inline-size:6px;height:12px;block-size:12px" opacity=".333" transform="rotate(90 50 50)"/></g><g style="user-select:none"><rect x="47" y="24" rx="9.4" ry="4.8" width="6" height="12" fill="#cacaca" style="y:24px;x:47px;width:6px;webkit-logical-width:6px;webkit-logical-height:12px;user-select:none;ry:4.8px;rx:9.4px;inline-size:6px;height:12px;block-size:12px" opacity=".417" transform="rotate(120 50 50)"/></g><g style="user-select:none"><rect x="47" y="24" rx="9.4" ry="4.8" width="6" height="12" fill="#cacaca" style="y:24px;x:47px;width:6px;webkit-logical-width:6px;webkit-logical-height:12px;user-select:none;ry:4.8px;rx:9.4px;inline-size:6px;height:12px;block-size:12px" opacity=".5" transform="rotate(150 50 50)"/></g><g style="user-select:none"><rect x="47" y="24" rx="9.4" ry="4.8" width="6" height="12" fill="#cacaca" style="y:24px;x:47px;width:6px;webkit-logical-width:6px;webkit-logical-height:12px;user-select:none;ry:4.8px;rx:9.4px;inline-size:6px;height:12px;block-size:12px" opacity=".583" transform="rotate(180 50 50)"/></g><g style="user-select:none"><rect x="47" y="24" rx="9.4" ry="4.8" width="6" height="12" fill="#cacaca" style="y:24px;x:47px;width:6px;webkit-logical-width:6px;webkit-logical-height:12px;user-select:none;ry:4.8px;rx:9.4px;inline-size:6px;height:12px;block-size:12px" opacity=".667" transform="rotate(210 50 50)"/></g><g style="user-select:none"><rect x="47" y="24" rx="9.4" ry="4.8" width="6" height="12" fill="#cacaca" style="y:24px;x:47px;width:6px;webkit-logical-width:6px;webkit-logical-height:12px;user-select:none;ry:4.8px;rx:9.4px;inline-size:6px;height:12px;block-size:12px" opacity=".75" transform="rotate(240 50 50)"/></g><g style="user-select:none"><rect x="47" y="24" rx="9.4" ry="4.8" width="6" height="12" fill="#cacaca" style="y:24px;x:47px;width:6px;webkit-logical-width:6px;webkit-logical-height:12px;user-select:none;ry:4.8px;rx:9.4px;inline-size:6px;height:12px;block-size:12px" opacity=".833" transform="rotate(270 50 50)"/></g><g style="user-select:none"><rect x="47" y="24" rx="9.4" ry="4.8" width="6" height="12" fill="#cacaca" style="y:24px;x:47px;width:6px;webkit-logical-width:6px;webkit-logical-height:12px;user-select:none;ry:4.8px;rx:9.4px;inline-size:6px;height:12px;block-size:12px" opacity=".917" transform="rotate(300 50 50)"/></g><g style="user-select:none"><rect x="47" y="24" rx="9.4" ry="4.8" width="6" height="12" fill="#cacaca" style="y:24px;x:47px;width:6px;webkit-logical-width:6px;webkit-logical-height:12px;user-select:none;ry:4.8px;rx:9.4px;inline-size:6px;height:12px;block-size:12px" transform="rotate(330 50 50)"/></g></svg>