<?xml version="1.0" encoding="UTF-8"?><!DOCTYPE svg PUBLIC "-//W3C//DTD SVG 1.1//EN" "http://www.w3.org/Graphics/SVG/1.1/DTD/svg11.dtd"><svg xmlns="http://www.w3.org/2000/svg"><symbol id="ico-airplane" viewBox="0 0 512 512">
    <path d="M397.6 462.6l-7.2-114.8 41-41c3-3 3-7.8 0-10.7l-30.8-30.8c-3-3-7.8-3-10.7 0l-4.4 4.4-4.4-70.3 31.1-31.1c16.7-16.7 27.9-35.8 33.4-56.7 3.3-12.8-.3-26.1-9.6-35.4-9.4-9.4-22.6-13-35.5-9.6-20.9 5.5-40 16.7-56.7 33.4l-31.1 31.1-70.4-4.4 4.4-4.4c3-3 3-7.8 0-10.7l-30.8-30.8c-3-3-7.8-3-10.7 0l-41 41-114.8-7.2c-16.5-1-26.7 10.2-29.4 21.8-2 8.7-.3 19 7.1 26.4 2.5 2.5 5.6 4.6 9.5 6.3l36.8 15.6c3.8 1.6 8.3-.2 9.9-4 1.6-3.9-.2-8.3-4-9.9l-36.8-15.6c-7.6-3.2-8.9-10.2-7.7-15.2 1.2-5 5.5-10.7 13.7-10.2l249.9 15.7-83.1 83.1-105.9-45c-3.8-1.6-8.3.2-9.9 4-1.6 3.8.2 8.3 4 9.9l100.3 42.6-59.5 59.5c-7.2 7.2-13.6 15.1-19.1 23.6H52.9c-7.4 0-13.6 4.6-15.9 11.7-1.9 6.1-.3 12.3 4 16.7.7.7 1.5 1.4 2.4 2L98.9 392c-.3 3.2.1 6.4 1.4 9.4l-24 24c-2.9 2.9-3.2 7.7-.4 10.8 2.9 3.1 7.9 3.2 10.9.2l24.2-24.2c2.9 1.2 6.1 1.6 9.3 1.3l38.4 55.6c.6.9 1.3 1.7 2 2.4 4.3 4.3 10.6 5.9 16.7 4 7.1-2.2 11.7-8.4 11.7-15.9v-72.2c8.5-5.5 16.4-11.9 23.6-19.1l27.7-27.7c3-3 3-7.8 0-10.7-3-3-7.8-3-10.7 0L202 357.1c-16 16-35.9 27.6-57.7 33.8l-17.2 4.9 31-31c2.9-2.9 3.2-7.7.4-10.8-2.9-3.1-7.9-3.2-10.9-.2l-31.3 31.3 4.9-17.4C127.3 346 139 326.1 155 310l199.5-199.5C369.3 95.7 386 85.8 404.3 81c7.6-2 15.4.2 20.9 5.7 5.5 5.5 7.7 13.4 5.7 20.9-4.8 18.3-14.7 35.1-29.4 49.8L254.7 304.3c-3 3-3 7.8 0 10.7 3 3 7.8 3 10.7 0l6.8-6.8 71 167.2c1.6 3.8 3.8 7 6.3 9.5 7.4 7.4 17.7 9.1 26.4 7.1 11.5-2.8 22.7-12.9 21.7-29.4zM222.1 125.2l-37.7-2.4 26.2-26.2 20 20-8.5 8.6zm-73.8 280.2c8.8-2.5 17.4-5.8 25.5-9.8v63.5c0 .3 0 1.1-1.1 1.4-1.1.3-1.5-.3-1.7-.5l-35.3-51 12.6-3.6zm-41.7-41.8l-3.5 12.4-51-35.2c-.2-.2-.9-.6-.6-1.7.3-1.1 1.1-1.1 1.4-1.1h63.5c-4 8.3-7.4 16.8-9.8 25.6zm288.6-82.2l20 20-26.2 26.2-2.4-37.7 8.6-8.5zm-22.9 195.8c-5 1.2-12-.1-15.2-7.7l-73.4-172.8 83.1-83.1 15.7 249.9c.5 8.3-5.2 12.6-10.2 13.7z"/>
    <path d="M412.8 131c0-17.5-14.3-31.8-31.8-31.8-4.2 0-7.6 3.4-7.6 7.6 0 4.2 3.4 7.6 7.6 7.6 9.2 0 16.6 7.5 16.6 16.6 0 2.1.8 4 2.2 5.4 1.4 1.4 3.3 2.2 5.4 2.2 4.2 0 7.6-3.4 7.6-7.6z"/>
</symbol><symbol id="ico-arrow-right" viewBox="0 0 492.004 492.004">
    <path d="M382.678 226.804L163.73 7.86C158.666 2.792 151.906 0 144.698 0s-13.968 2.792-19.032 7.86l-16.124 16.12c-10.492 10.504-10.492 27.576 0 38.064L293.398 245.9l-184.06 184.06c-5.064 5.068-7.86 11.824-7.86 19.028 0 7.212 2.796 13.968 7.86 19.04l16.124 16.116c5.068 5.068 11.824 7.86 19.032 7.86s13.968-2.792 19.032-7.86L382.678 265c5.076-5.084 7.864-11.872 7.848-19.088.016-7.244-2.772-14.028-7.848-19.108z"/>
</symbol><symbol id="ico-gift" viewBox="0 0 512 512">
    <path d="M469.333 192H42.667C36.779 192 32 196.779 32 202.667v298.667C32 507.221 36.779 512 42.667 512h426.667c5.888 0 10.667-4.779 10.667-10.667V202.667C480 196.779 475.221 192 469.333 192zm-10.666 298.667H53.333V213.333h405.333v277.334z"/>
    <path d="M490.667 106.667H21.333c-5.888 0-10.667 4.779-10.667 10.667v85.333c0 5.888 4.779 10.667 10.667 10.667h469.333c5.888 0 10.667-4.779 10.667-10.667v-85.333c0-5.889-4.778-10.667-10.666-10.667zM480 192H32v-64h448v64z"/>
    <path d="M256 106.667c-5.888 0-10.667 4.779-10.667 10.667v384c0 5.888 4.779 10.667 10.667 10.667s10.667-4.779 10.667-10.667v-384c0-5.889-4.779-10.667-10.667-10.667z"/>
    <path d="M266.901 114.816C255.936 63.381 190.528 8.192 146.944.811A42.327 42.327 0 0 0 138.667 0C115.136 0 96 19.136 96 42.667a42.836 42.836 0 0 0 9.664 27.051c.085.064.149.171.213.256 31.68 40.469 137.131 55.979 149.12 57.621.491.064.981.107 1.451.107a10.66 10.66 0 0 0 7.829-3.413 10.638 10.638 0 0 0 2.624-9.473zM122.389 56.427a7.18 7.18 0 0 0-.619-.747c-2.901-3.733-4.437-8.235-4.437-13.013 0-11.776 9.579-21.333 21.333-21.333 1.408 0 2.795.149 4.437.448 31.979 5.419 80.256 44.117 97.6 81.877-37.14-6.848-99.839-22.827-118.314-47.232z"/>
    <path d="M373.333 0c-2.837 0-5.589.277-7.979.747-43.861 7.445-109.269 62.634-120.234 114.069a10.638 10.638 0 0 0 2.624 9.472 10.694 10.694 0 0 0 7.808 3.413c.469 0 .96-.043 1.429-.085 11.989-1.643 117.44-17.152 149.12-57.621.085-.085.149-.192.235-.277A42.84 42.84 0 0 0 416 42.667C416 19.136 396.864 0 373.333 0zm16.896 55.701c-.213.235-.427.469-.619.747-18.453 24.363-81.152 40.384-118.315 47.232 17.365-37.803 65.664-76.48 97.899-81.941a22.135 22.135 0 0 1 4.139-.405c11.755 0 21.333 9.557 21.333 21.333.001 4.778-1.535 9.258-4.437 13.034z"/>
</symbol><symbol id="ico-learning" viewBox="0 0 511.999 511.999">
    <path d="M457.989 64.275c6.613-1.225 11.232-6.778 11.232-13.503 0-6.726-4.619-12.278-11.232-13.503L257.46.134a8 8 0 0 0-2.919 0L54.01 37.268c-6.613 1.225-11.232 6.778-11.232 13.503 0 6.725 4.619 12.278 11.232 13.503l90.716 16.8-4.975 39.793a33.624 33.624 0 0 0 2.089 16.593c-56.783 38.19-90.533 101.284-90.533 169.845 0 112.869 91.825 204.693 204.693 204.693s204.693-91.824 204.693-204.693c0-28.526-5.763-56.075-17.102-81.951V187.59c0-6.603-2.564-12.614-6.745-17.102 4.18-4.488 6.745-10.5 6.745-17.102 0-11.047-7.172-20.445-17.102-23.8V70.108l31.5-5.833zm-306.853 86.26a33.653 33.653 0 0 0 14.455 7.317l7.577 1.749c-6.526 10.807-12.258 22.773-17.125 35.65a503.82 503.82 0 0 1-43.301-10.728c11.041-12.834 23.905-24.289 38.394-33.988zm-48.996 47.514a520.638 520.638 0 0 0 48.654 12.492c-8.37 27.049-13.174 57.319-13.875 88.749h-69.39c1.546-36.986 13.754-71.954 34.611-101.241zm.113 218.479c-20.524-28.806-33.151-63.601-34.732-101.205h69.393c.694 31.447 5.462 61.66 13.861 88.752a520.281 520.281 0 0 0-48.522 12.453zm10.601 13.529a504.811 504.811 0 0 1 43.165-10.689c4.167 11 8.977 21.367 14.396 30.954 8.328 14.734 17.744 27.008 27.958 36.632-33.563-10.792-63.056-30.739-85.519-56.897zm135.129 65.324c-23.723-3.412-46.063-21.904-63.61-52.949-4.578-8.099-8.688-16.813-12.316-26.031a505.758 505.758 0 0 1 75.926-6.939v85.919zm0-101.952a521.813 521.813 0 0 0-81.373 7.621c-8.258-25.98-12.958-55.195-13.659-85.727h95.032v78.106zm0-94.14h-95.028c.709-30.537 5.45-59.808 13.671-85.726a521.598 521.598 0 0 0 81.357 7.62v78.106zm0-94.138a505.49 505.49 0 0 1-75.936-6.943c4.995-12.72 10.901-24.415 17.636-34.797l52.978 12.226c1.756.405 3.535.707 5.323.948v28.566zm0-44.793c-.574-.108-1.149-.213-1.718-.344l-77.069-17.785a17.591 17.591 0 0 1-13.535-19.373l4.857-38.857 87.465 16.197v60.162zm16.033 335.023v-85.919a505.722 505.722 0 0 1 75.925 6.94c-3.628 9.218-7.738 17.932-12.316 26.031-17.546 31.044-39.886 49.536-63.609 52.948zm129.336-341.996c0 .79.042 1.57.113 2.341a205.657 205.657 0 0 0-23.31-18.256 33.644 33.644 0 0 0 2.093-16.604l-4.975-39.794 43.181-7.995v56.508c-9.929 3.355-17.102 12.752-17.102 23.8zm16.034 34.205c0-5.01 4.076-9.086 9.086-9.086 5.01 0 9.086 4.076 9.086 9.086v34.739h-18.171V187.59zm-14.693-8.078a24.943 24.943 0 0 0-1.301 6.692 504.23 504.23 0 0 1-37.43 9.057c-4.868-12.881-10.602-24.851-17.13-35.661l7.577-1.749a33.654 33.654 0 0 0 14.448-7.31 189.78 189.78 0 0 1 33.836 28.971zm-51.89-37.283l-77.069 17.785c-.569.131-1.144.237-1.718.344v-60.164l87.465-16.197 4.857 38.859a17.59 17.59 0 0 1-13.535 19.373zm-73.464 33.408l52.977-12.225c6.736 10.383 12.644 22.077 17.639 34.798a505.937 505.937 0 0 1-75.938 6.946v-28.57a59.387 59.387 0 0 0 5.322-.949zm76.031 37.91c8.223 25.921 12.967 55.196 13.674 85.742h-95.028v-78.101a521.998 521.998 0 0 0 81.354-7.641zm13.678 101.776c-.701 30.532-5.401 59.748-13.66 85.728a521.647 521.647 0 0 0-81.372-7.622v-78.106h95.032zm-45.421 171.63c10.214-9.624 19.63-21.898 27.958-36.632 5.419-9.587 10.229-19.954 14.396-30.954a504.773 504.773 0 0 1 43.163 10.69c-22.464 26.159-51.956 46.105-85.517 56.896zm96.119-70.424a520.755 520.755 0 0 0-48.522-12.453c8.399-27.093 13.168-57.307 13.861-88.753h69.393c-1.581 37.603-14.208 72.399-34.732 101.206zm34.732-117.24h-69.397c-.701-31.431-5.504-61.699-13.873-88.745a520.34 520.34 0 0 0 32.145-7.68v27.481a8.017 8.017 0 0 0 8.017 8.017h30.287c7.662 19.45 11.951 39.875 12.821 60.927zm-16.921-145.904c0 5.01-4.076 9.086-9.086 9.086-5.01 0-9.086-4.076-9.086-9.086s4.076-9.086 9.086-9.086c5.01.001 9.086 4.077 9.086 9.086zM256 85.375L69.145 50.772 256 16.169l186.855 34.602L256 85.375z"/>
</symbol><symbol id="ico-light-bulb" viewBox="0 0 792 792">
    <path d="M324.082 693.799c-6.832 0-12.401-5.543-12.401-12.375s5.543-12.375 12.401-12.375h143.86c6.832 0 12.375 5.543 12.375 12.375s-5.543 12.375-12.375 12.375h-143.86z"/>
    <path d="M340.066 742.912c-6.832 0-12.375-5.543-12.375-12.375s5.569-12.375 12.375-12.375h111.891c6.832 0 12.375 5.543 12.375 12.375s-5.543 12.375-12.375 12.375H340.066z"/>
    <path d="M384.358 571.828c0 6.807-5.517 12.323-12.323 12.323s-12.323-5.518-12.323-12.323c-.052-52.104-1.547-91.033-8.74-127.076-7.115-35.629-19.852-68.655-42.461-109.39-3.3-5.955-1.16-13.458 4.77-16.758 5.956-3.3 13.458-1.16 16.784 4.77 24.002 43.261 37.589 78.479 45.168 116.558 7.501 37.589 9.074 77.962 9.125 131.896z"/>
    <path d="M432.312 571.828c0 6.807-5.518 12.323-12.323 12.323s-12.323-5.518-12.323-12.323c.053-53.936 1.624-94.282 9.126-131.896 7.58-38.079 21.167-73.295 45.169-116.558 3.301-5.955 10.828-8.095 16.759-4.77 5.956 3.3 8.068 10.828 4.77 16.758-22.61 40.734-35.346 73.787-42.462 109.39-7.169 36.043-8.689 74.973-8.716 127.076z"/>
    <path d="M315.523 341.112c-6.497-2.063-10.055-9.023-7.992-15.521 2.088-6.497 9.023-10.055 15.521-7.992 8.611 2.785 16.062 6.523 22.945 9.978l.67.361c10.75 5.414 19.697 9.642 26.348 4.228l15.211-12.401c5.285-4.279 13.073-3.48 17.351 1.805 4.28 5.285 3.48 13.071-1.805 17.351l-15.211 12.401c-18.949 15.417-34.444 7.915-53.109-1.444l-.567-.258c-6.033-3.043-12.582-6.317-19.362-8.508z"/>
    <path d="M408.388 60.328c0 6.832-5.543 12.375-12.376 12.375-6.832 0-12.375-5.543-12.375-12.375V12.375C383.637 5.543 389.18 0 396.012 0c6.834 0 12.376 5.543 12.376 12.375v47.953z"/>
    <path d="M468.974 317.599c6.497-2.088 13.458 1.496 15.521 7.992 2.088 6.497-1.495 13.458-7.992 15.521-6.779 2.191-13.328 5.491-19.388 8.534l-.566.258c-18.641 9.358-34.16 16.887-53.109 1.443l-15.211-12.4c-5.285-4.28-6.084-12.066-1.805-17.351 4.28-5.285 12.066-6.084 17.352-1.805l15.211 12.401c6.652 5.414 15.572 1.16 26.349-4.228l.672-.361c6.904-3.481 14.354-7.219 22.966-10.004z"/>
    <path d="M551.706 192.354c39.832 39.832 64.505 94.901 64.505 155.693 0 23.771-3.815 46.741-10.828 68.27-7.244 22.249-17.995 43.003-31.53 61.515-22.713 31.066-41.146 51.459-55.455 67.313-25.756 28.488-37.048 40.968-37.048 82.63 0 6.832-5.543 12.375-12.375 12.375H324.109c-6.832 0-12.401-5.543-12.401-12.375 0-41.25-11.524-53.857-37.099-81.882l-.026-.025-.026.025c-14.463-15.829-33.077-36.223-56.358-68.062-13.535-18.512-24.286-39.291-31.53-61.54a220.008 220.008 0 0 1-10.828-68.243c0-29.751 5.956-58.214 16.732-84.202l.232-.49c11.189-26.813 27.483-50.944 47.566-71.001a220.45 220.45 0 0 1 71.492-47.747v-.026c25.987-10.776 54.45-16.732 84.202-16.732 29.702 0 58.137 5.956 84.151 16.732 26.966 11.189 51.277 27.56 71.49 47.772zm39.729 155.693c0-53.96-21.89-102.815-57.234-138.188-18.071-18.073-39.6-32.613-63.422-42.462-22.945-9.513-48.211-14.772-74.767-14.772-26.529 0-51.794 5.259-74.714 14.772v-.025l-.052.025c-23.822 9.849-45.323 24.389-63.396 42.462-17.892 17.892-32.355 39.239-42.23 62.803l-.258.67c-9.487 22.919-14.772 48.185-14.772 74.714 0 21.192 3.377 41.611 9.565 60.611a196.187 196.187 0 0 0 27.947 54.579c22.353 30.576 40.554 50.506 54.708 66.025l-.026.025c27.534 30.087 41.224 45.143 43.364 86.135h120.708c2.114-41.275 15.546-56.177 43.209-86.754 13.819-15.288 31.582-34.959 53.832-65.381a194.945 194.945 0 0 0 27.921-54.553c6.24-19.075 9.617-39.468 9.617-60.686z"/>
    <path d="M356.051 792c-6.832 0-12.375-5.543-12.375-12.375s5.543-12.375 12.375-12.375h79.923c6.832 0 12.375 5.543 12.375 12.375S442.806 792 435.974 792h-79.923z"/>
    <path d="M547.839 104.285c-3.379 5.878-10.933 7.915-16.837 4.538-5.878-3.377-7.913-10.931-4.536-16.835l23.977-41.533c3.377-5.878 10.932-7.915 16.835-4.538 5.904 3.377 7.915 10.931 4.538 16.835l-23.977 41.533z"/>
    <path d="M265.533 92.013c3.377 5.878 1.367 13.432-4.538 16.81-5.878 3.377-13.432 1.34-16.809-4.538l-23.977-41.534c-3.377-5.878-1.341-13.432 4.538-16.809 5.904-3.377 13.458-1.341 16.835 4.537l23.951 41.534z"/>
    <path d="M157.69 190.781c5.878 3.377 7.915 10.931 4.538 16.835-3.377 5.878-10.932 7.915-16.81 4.538l-41.534-23.977c-5.904-3.377-7.94-10.931-4.563-16.809 3.377-5.904 10.931-7.915 16.835-4.538l41.534 23.951z"/>
    <path d="M646.606 212.154c-5.904 3.377-13.458 1.341-16.835-4.538-3.378-5.904-1.341-13.458 4.537-16.835l41.534-23.977c5.902-3.377 13.456-1.341 16.835 4.538 3.377 5.878 1.341 13.458-4.538 16.835l-41.533 23.977z"/>
    <path d="M267.441 396.954c2.63 6.265-.309 13.509-6.574 16.139-6.265 2.63-13.509-.31-16.139-6.574a162.272 162.272 0 0 1-9.643-31.271c-2.14-10.699-3.3-21.63-3.3-32.613 0-6.832 5.569-12.375 12.375-12.375 6.832 0 12.375 5.569 12.375 12.375 0 9.668.954 18.975 2.733 27.792a137.702 137.702 0 0 0 8.173 26.527zm0-108.668c-2.629 6.265-9.874 9.204-16.139 6.574-6.265-2.63-9.204-9.875-6.574-16.139a165.163 165.163 0 0 1 15.03-27.767l.026-.026-.026-.025a165.85 165.85 0 0 1 20.109-24.415c7.322-7.322 15.521-14.077 24.44-20.083v-.026c8.56-5.775 17.918-10.854 27.818-15.03a160.97 160.97 0 0 1 31.247-9.643c10.699-2.166 21.682-3.3 32.639-3.3 6.834 0 12.376 5.543 12.376 12.375s-5.543 12.375-12.376 12.375c-9.694 0-19.026.954-27.818 2.707-9.204 1.831-18.099 4.641-26.503 8.198-8.172 3.455-16.062 7.76-23.564 12.813h-.026c-7.296 4.898-14.257 10.673-20.702 17.119-6.368 6.368-12.143 13.355-17.119 20.754l-.026-.026c-5.026 7.452-9.332 15.341-12.812 23.565z"/>
</symbol><symbol id="ico-logout" viewBox="0 0 512 512">
    <path d="M505.664 243.739l-54.783-38.622c-9.926-6.997-23.645.128-23.645 12.26v23.622h-263.04c-8.284 0-15.001 6.716-15.001 15.001s6.717 15 15.001 15h263.038v23.621c0 12.212 13.792 19.204 23.644 12.26l54.783-38.622c8.366-5.894 8.535-18.492.003-24.52z"/>
    <path d="M430.471 352.317c-7.169-4.146-16.347-1.698-20.496 5.474-35.236 60.916-101.103 101.811-176.372 101.811-112.266 0-203.602-91.336-203.602-203.602S121.337 52.398 233.603 52.398c75.319 0 141.156 40.933 176.371 101.809 4.148 7.172 13.328 9.619 20.496 5.474 7.171-4.148 9.621-13.325 5.474-20.496C395.418 69.127 319.729 22.397 233.603 22.397 104.49 22.397 0 126.876 0 256c0 129.113 104.479 233.603 233.603 233.603 86.163 0 161.833-46.763 202.342-116.79 4.147-7.171 1.697-16.347-5.474-20.496z"/>
</symbol><symbol id="ico-microphone" viewBox="0 0 58 58">
    <path d="M44 28a1 1 0 0 0-1 1v6c0 7.72-6.28 14-14 14s-14-6.28-14-14v-6a1 1 0 1 0-2 0v6c0 8.485 6.644 15.429 15 15.949V56h-5a1 1 0 1 0 0 2h12a1 1 0 1 0 0-2h-5v-5.051c8.356-.52 15-7.465 15-15.949v-6a1 1 0 0 0-1-1z"/>
    <path d="M29 46c6.065 0 11-4.935 11-11V11c0-6.065-4.935-11-11-11S18 4.935 18 11v24c0 6.065 4.935 11 11 11zm-9-35c0-4.963 4.038-9 9-9s9 4.037 9 9v24c0 4.963-4.038 9-9 9s-9-4.037-9-9V11z"/>
</symbol><symbol id="ico-rating" viewBox="0 0 511.999 511.999">
    <path d="M468.15 157.858h-21.558v-13.863l13.451-14.814a41.616 41.616 0 0 0 10.828-28.033V66.017c0-24.565-19.986-44.55-44.551-44.55h-20.492c-24.565 0-44.55 19.986-44.55 44.55v35.131a41.623 41.623 0 0 0 10.827 28.033l13.453 14.816v13.861H364c-20.944 0-38.497 14.764-42.821 34.43a48.504 48.504 0 0 0-6.729-.478h-25.252v-16.958l15.404-16.963a45.909 45.909 0 0 0 11.943-30.92V87.4c0-27.132-22.073-49.203-49.204-49.203-4.252 0-7.697 3.445-7.697 7.697s3.445 7.697 7.697 7.697c18.643 0 33.81 15.166 33.81 33.809v39.568a30.543 30.543 0 0 1-7.945 20.571l-15.862 17.469a7.69 7.69 0 0 0-3.538 6.478v28.022a7.696 7.696 0 0 0 7.697 7.697h32.949c18.207 0 33.021 14.813 33.021 33.021v48.298H164.13v-48.298c0-14.196 9.006-26.326 21.602-30.984a7.59 7.59 0 0 0 1.689-.573 32.934 32.934 0 0 1 9.729-1.465h32.949a7.696 7.696 0 0 0 7.697-7.697v-28.022a7.692 7.692 0 0 0-3.538-6.478l-15.862-17.469a30.542 30.542 0 0 1-7.947-20.571V87.4c0-18.642 15.166-33.809 33.81-33.809 4.251 0 7.697-3.445 7.697-7.697s-3.446-7.697-7.697-7.697c-27.132 0-49.204 22.072-49.204 49.203v39.568a45.912 45.912 0 0 0 11.943 30.92L222.4 174.85v16.959h-25.252c-2.151 0-4.265.155-6.342.429-4.342-19.641-21.881-34.38-42.808-34.38H126.44v-13.863l13.451-14.814a41.616 41.616 0 0 0 10.828-28.033V66.017c0-24.565-19.986-44.55-44.551-44.55h-20.49c-24.565 0-44.55 19.986-44.55 44.55v35.131a41.614 41.614 0 0 0 10.828 28.033l13.452 14.815v13.862H43.85c-24.179 0-43.85 19.671-43.85 43.85v49.716a7.696 7.696 0 0 0 7.697 7.697h119.758c4.251 0 7.697-3.445 7.697-7.697s-3.446-7.697-7.697-7.697H15.394v-42.019c0-15.69 12.765-28.456 28.456-28.456h29.255a7.696 7.696 0 0 0 7.697-7.697v-24.88a7.69 7.69 0 0 0-3.441-6.414l-14.009-15.428a26.253 26.253 0 0 1-6.831-17.684V66.017c0-16.077 13.079-29.156 29.156-29.156h20.492c16.077 0 29.157 13.079 29.157 29.156v35.131a26.251 26.251 0 0 1-6.831 17.684l-14.01 15.429a7.69 7.69 0 0 0-3.439 6.413v24.88a7.696 7.696 0 0 0 7.697 7.697h29.255c13.975 0 25.621 10.129 28.002 23.43-16.127 7.864-27.265 24.424-27.265 43.542v55.995a7.696 7.696 0 0 0 7.697 7.697h198.736a7.696 7.696 0 0 0 7.697-7.697v-55.995c0-18.971-10.973-35.419-26.901-43.355 2.305-13.392 13.995-23.617 28.036-23.617h29.255a7.696 7.696 0 0 0 7.697-7.697v-24.88a7.689 7.689 0 0 0-3.442-6.415l-14.008-15.427a26.25 26.25 0 0 1-6.83-17.684V66.017c0-16.077 13.079-29.156 29.156-29.156h20.492c16.077 0 29.157 13.079 29.157 29.156v35.131a26.251 26.251 0 0 1-6.831 17.684l-14.009 15.429a7.689 7.689 0 0 0-3.44 6.413v24.88a7.696 7.696 0 0 0 7.697 7.697h29.255c15.69 0 28.456 12.765 28.456 28.456v42.019H385.868c-4.252 0-7.697 3.445-7.697 7.697s3.445 7.697 7.697 7.697h118.434a7.696 7.696 0 0 0 7.697-7.697v-49.716c.001-24.178-19.67-43.849-43.849-43.849z"/>
    <path d="M333.406 401.466a7.695 7.695 0 0 0-6.073-5.218l-42.046-6.902-19.557-37.856a7.698 7.698 0 0 0-13.676 0l-19.557 37.856-42.046 6.902a7.699 7.699 0 0 0-4.227 13.009l29.958 30.297-6.429 42.12a7.694 7.694 0 0 0 3.085 7.388 7.691 7.691 0 0 0 7.979.651l38.073-19.13 38.073 19.13a7.69 7.69 0 0 0 7.979-.651 7.694 7.694 0 0 0 3.085-7.388l-6.43-42.12 29.958-30.297a7.689 7.689 0 0 0 1.851-7.791zm-45.47 30.013a7.702 7.702 0 0 0-2.136 6.573l4.765 31.214-28.216-14.176a7.7 7.7 0 0 0-6.911 0l-28.216 14.176 4.764-31.214a7.695 7.695 0 0 0-2.136-6.573l-22.204-22.454 31.16-5.114a7.7 7.7 0 0 0 5.591-4.063l14.494-28.055 14.493 28.055a7.702 7.702 0 0 0 5.591 4.063l31.16 5.114-22.199 22.454z"/>
    <path d="M501.894 344.869a7.698 7.698 0 0 0-6.071-5.218l-42.046-6.902-19.558-37.856a7.698 7.698 0 0 0-13.676 0l-19.557 37.856-42.047 6.902a7.699 7.699 0 0 0-4.227 13.009l29.959 30.297-6.43 42.121a7.694 7.694 0 0 0 3.085 7.388 7.693 7.693 0 0 0 7.979.651l38.073-19.13 38.073 19.13a7.686 7.686 0 0 0 7.979-.651 7.694 7.694 0 0 0 3.085-7.388l-6.43-42.121 29.959-30.297a7.69 7.69 0 0 0 1.85-7.791zm-45.47 30.014a7.701 7.701 0 0 0-2.136 6.573l4.765 31.215-28.216-14.176a7.7 7.7 0 0 0-6.912 0l-28.216 14.176 4.765-31.215a7.698 7.698 0 0 0-2.136-6.573l-22.203-22.453 31.16-5.114a7.698 7.698 0 0 0 5.591-4.063l14.493-28.055 14.494 28.055a7.702 7.702 0 0 0 5.591 4.063l31.159 5.114-22.199 22.453z"/>
    <path d="M164.919 344.87a7.698 7.698 0 0 0-6.074-5.219l-42.046-6.902-19.557-37.856a7.7 7.7 0 0 0-13.678 0L64.009 332.75l-42.046 6.902a7.699 7.699 0 0 0-4.227 13.009l29.959 30.297-6.429 42.121a7.694 7.694 0 0 0 3.085 7.388 7.692 7.692 0 0 0 7.979.651l38.073-19.13 38.072 19.13a7.686 7.686 0 0 0 7.979-.651 7.694 7.694 0 0 0 3.085-7.388l-6.429-42.121 29.958-30.297a7.693 7.693 0 0 0 1.851-7.791zm-45.472 30.013a7.698 7.698 0 0 0-2.136 6.573l4.764 31.215-28.215-14.176a7.683 7.683 0 0 0-6.912 0l-28.216 14.176 4.765-31.215a7.695 7.695 0 0 0-2.136-6.573l-22.2-22.453 31.16-5.114a7.703 7.703 0 0 0 5.592-4.063l14.493-28.055 14.493 28.055a7.703 7.703 0 0 0 5.592 4.063l31.16 5.114-22.204 22.453z"/>
</symbol><symbol id="ico-search" viewBox="0 0 512 512">
    <path d="M495 466.2L377.2 348.4c29.2-35.6 46.8-81.2 46.8-130.9C424 103.5 331.5 11 217.5 11 103.4 11 11 103.5 11 217.5S103.4 424 217.5 424c49.7 0 95.2-17.5 130.8-46.7L466.1 495c8 8 20.9 8 28.9 0 8-7.9 8-20.9 0-28.8zm-277.5-83.3C126.2 382.9 52 308.7 52 217.5S126.2 52 217.5 52C308.7 52 383 126.3 383 217.5s-74.3 165.4-165.5 165.4z"/>
</symbol></svg>